<mxfile host="app.diagrams.net" modified="2024-03-07T01:17:08.454Z" agent="Mozilla/5.0 (Windows NT 10.0; Win64; x64) AppleWebKit/537.36 (KHTML, like Gecko) Chrome/121.0.0.0 Safari/537.36" version="24.0.0" etag="cEzAH3G1D-qNHcK9OumX" type="github">
  <diagram name="第 1 页" id="ee7YWYgeDnB8Q1HyjFBW">
    <mxGraphModel>
      <root>
        <mxCell id="0" />
        <mxCell id="1" parent="0" />
      </root>
    </mxGraphModel>
  </diagram>
</mxfile>
